<svg width="20" height="20" viewBox="0 0 20 20" fill="none" xmlns="http://www.w3.org/2000/svg">
<path d="M15.7782 12.4835C15.5296 12.0863 15.3976 11.6271 15.3974 11.1585V7.68852C15.3974 6.25701 14.8287 4.88413 13.8165 3.87191C12.8043 2.85968 11.4314 2.29102 9.9999 2.29102C8.5684 2.29102 7.19552 2.85968 6.18329 3.87191C5.17106 4.88413 4.6024 6.25701 4.6024 7.68852V11.1568C4.60247 11.626 4.47049 12.0858 4.22157 12.4835L3.3149 13.9335C3.23606 14.0597 3.19242 14.2046 3.18852 14.3533C3.18462 14.502 3.22059 14.6491 3.2927 14.7792C3.36481 14.9093 3.47043 15.0177 3.5986 15.0932C3.72677 15.1687 3.87281 15.2085 4.02157 15.2085H15.9782C16.127 15.2085 16.273 15.1687 16.4012 15.0932C16.5294 15.0177 16.635 14.9093 16.7071 14.7792C16.7792 14.6491 16.8152 14.502 16.8113 14.3533C16.8074 14.2046 16.7637 14.0597 16.6849 13.9335L15.7782 12.4835Z" stroke="#123C91" stroke-width="2" stroke-linecap="round" stroke-linejoin="round"/>
<path d="M8.33325 17.7085H11.6666" stroke="#123C91" stroke-width="2" stroke-linecap="round"/>
</svg>
